# AST/ASF file generated using VICON BodyLanguage
# -----------------------------------------------
:version 1.10
:name VICON
:units
  mass 1.0
  length 0.45
  angle deg
:documentation
   .ast/.asf automatically generated from VICON data using
   VICON BodyBuilder and BodyLanguage model FoxedUp or BRILLIANT.MOD
:root
   order TX TY TZ RX RY RZ
   axis XYZ
   position 0 0 0  
   orientation 0 0 0 
:bonedata
  begin
     id 1 
     name lhipjoint
     direction 0.630305 -0.712092 0.309259 
     length 2.29033 
     axis 0 0 0  XYZ
  end
  begin
     id 2 
     name lfemur
     direction 0.34202 -0.939693 0  
     length 6.43538  
     axis 0 0 20  XYZ
    dof rx ry rz
    limits (-160.0 20.0)
           (-70.0 70.0)
           (-60.0 70.0)
  end
  begin
     id 3 
     name ltibia
     direction 0.34202 -0.939693 0   
     length 7.43097   
     axis 0 0 20   XYZ
    dof rx
    limits (-10.0 170.0)
  end
  begin
     id 4 
     name lfoot
     direction 0.0334653 -0.0919451 0.995202   
     length 1.78438   
     axis -90 7.62852e-016 20   XYZ
    dof rx rz
    limits (-45.0 90.0)
           (-70.0 20.0)
  end
  begin
     id 5 
     name ltoes
     direction 1.53535e-011 -4.21933e-011 1   
     length 0.90832   
     axis -90 7.62852e-016 20   XYZ
    dof rx
    limits (-90.0 20.0)
  end
  begin
     id 6 
     name rhipjoint
     direction -0.682059 -0.67077 0.291312   
     length 2.43143  
     axis 0 0 0  XYZ 
  end
  begin
     id 7 
     name rfemur
     direction -0.34202 -0.939693 0   
     length 6.63488   
     axis 0 0 -20   XYZ
    dof rx ry rz
    limits (-160.0 20.0)
           (-70.0 70.0)
           (-70.0 60.0)
  end
  begin
     id 8 
     name rtibia
     direction -0.34202 -0.939693 0   
     length 6.86532   
     axis 0 0 -20   XYZ
    dof rx
    limits (-10.0 170.0)
 end
 begin
     id 9 
     name rfoot
     direction -0.105199 -0.289033 0.951521   
     length 1.77126  
     axis -90 -7.62852e-016 -20   XYZ
    dof rx rz
    limits (-45.0 90.0)
           (-20.0 70.0)
  end
  begin
     id 10 
     name rtoes
     direction -1.53551e-011 -4.21978e-011 1   
     length 0.889273   
     axis -90 -7.62852e-016 -20   XYZ
    dof rx
    limits (-90.0 20.0)
  end
  begin
     id 11 
     name lowerback
     direction -0.0514305 0.998089 0.034245   
     length 2.02077   
     axis 0 0 0   XYZ
    dof rx ry rz
    limits (-20.0 45.0)
           (-30.0 30.0)
           (-30.0 30.0)
  end
  begin
     id 12 
     name upperback
     direction 0.0203189 0.999449 -0.0262315   
     length 2.01413   
     axis 0 0 0   XYZ
    dof rx ry rz
    limits (-20.0 45.0)
           (-30.0 30.0)
           (-30.0 30.0)
  end
  begin
     id 13 
     name thorax
     direction 0.0452736 0.998142 -0.0407729   
     length 2.02986   
     axis 0 0 0   XYZ
    dof rx ry rz
    limits (-20.0 45.0)
           (-30.0 30.0)
           (-30.0 30.0)
  end
  begin
     id 14 
     name lowerneck
     direction -0.0180464 0.999645 -0.0195774   
     length 1.59034   
     axis 0 0 0   XYZ
    dof rx ry rz
    limits (-20.0 45.0)
           (-30.0 30.0)
           (-30.0 30.0)
  end
  begin
     id 15 
     name upperneck
     direction 0.0732272 0.979935 -0.18538   
     length 1.57486   
     axis 0 0 0   XYZ
    dof rx ry rz
    limits (-20.0 45.0)
           (-30.0 30.0)
           (-30.0 30.0)
  end
  begin
     id 16
     name head
     direction 0.0252963 0.997909 -0.059472  
     length 1.60334  
     axis 0 0 0   XYZ
    dof rx ry rz
    limits (-20.0 45.0)
           (-30.0 30.0)
           (-30.0 30.0)
  end
  begin
     id 17 
     name lclavicle
     direction 0.943819 0.330449 0.00315172  
     length 3.50322  
     axis 0 0 0   XYZ
    dof ry rz
    limits (-20.0 10.0)
           (0.0 20.0)
  end
  begin
     id 18 
     name lhumerus
     direction 1 -4.48949e-011 2.22502e-028   
     length 4.63208   
     axis 180 -30 -90   XYZ
    dof rx ry rz
    limits (-60.0 90.0)
           (-90.0 90.0)
           (-90.0 90.0)
  end
  begin
     id 19
     name lradius
     direction 1 -4.48967e-011 -4.10197e-027   
     length 3.41924   
     axis 180 -30 -90   XYZ
    dof rx
    limits (-10.0 170.0)
  end
  begin
     id 20
     name lwrist
     direction 1 -4.48987e-011 -1.24264e-027   
     length 1.70962   
     axis 2.50585e-015 90 90   XYZ
    dof ry
    limits (-180.0 0.0)
 end
  begin
     id 21 
     name lhand
     direction 1 -4.48983e-011 -2.48528e-027   
     length 0.62537   
     axis 1.58582e-015 90 90   XYZ
    dof rx rz
    limits (-90.0 90.0)
           (-45.0 45.0)
  end
  begin
     id 22 
     name lfingers
     direction 1 -4.48896e-011 -4.97056e-027   
     length 0.50419   
     axis 3.17164e-015 90 90   XYZ
    dof rx
    limits (0.0 90.0)
  end
  begin
     id 23
     name lthumb
     direction 0.707107 -6.34803e-011 0.707107   
     length 0.723919   
     axis -90 45 2.85299e-015   XYZ
    dof rx rz
    limits (-45.0 45.0)
           (-45.0 45.0)
  end
  begin
     id 24 
     name rclavicle
     direction -0.964499 0.260664 -0.0423695   
     length 3.91997  
     axis 0 0 0   XYZ 
    dof ry rz
    limits (-10.0 20.0)
           (-20.0 0.0)
  end
  begin
     id 25 
     name rhumerus
     direction -1 -4.48957e-011 -1.98656e-027  
     length 4.4064   
     axis 180 30 90   XYZ
    dof rx ry rz
    limits (-90.0 60.0)
           (-90.0 90.0)
           (-90.0 90.0)
  end
  begin
     id 26 
     name rradius
     direction -1 -4.48968e-011 1.96972e-027   
     length 3.44675   
     axis 180 30 90   XYZ
    dof rx
    limits (-10.0 170.0)
  end
  begin
     id 27 
     name rwrist
     direction -1 -4.48974e-011 -1.24264e-027   
     length 1.72338   
     axis 2.50585e-015 -90 -90   XYZ
    dof ry
    limits (-180.0 0.0)
  end
  begin
     id 28
     name rhand
     direction -1 -4.48901e-011 -2.48528e-027   
     length 0.513674   
     axis 1.58582e-015 -90 -90   XYZ
    dof rx rz
    limits (-90.0 90.0)
           (-45.0 45.0)
  end
  begin
     id 29
     name rfingers
     direction -1 -4.48946e-011 -4.97056e-027   
     length 0.414137   
     axis 3.17164e-015 -90 -90   XYZ
    dof rx
    limits (0.0 90.0)
  end
  begin
     id 30
     name rthumb
     direction -0.707107 -6.34859e-011 0.707107   
     length 0.59462   
     axis -90 -45 -2.85299e-015   XYZ
    dof rx rz
    limits (-45.0 45.0)
           (-45.0 45.0)
  end
:hierarchy
  begin
    root lhipjoint rhipjoint lowerback
    lhipjoint lfemur
    lfemur ltibia
    ltibia lfoot
    lfoot ltoes
    rhipjoint rfemur
    rfemur rtibia
    rtibia rfoot
    rfoot rtoes
    lowerback upperback
    upperback thorax
    thorax lowerneck lclavicle rclavicle
    lowerneck upperneck
    upperneck head
    lclavicle lhumerus
    lhumerus lradius
    lradius lwrist
    lwrist lhand lthumb
    lhand lfingers
    rclavicle rhumerus
    rhumerus rradius
    rradius rwrist
    rwrist rhand rthumb
    rhand rfingers
  end

#!OML:ASF E:\inclinewalkrobotboard\Project 1\Capture day 1\Session 1\subject1.ASF
:FULLY-SPECIFIED
:DEGREES
80
root 9.87815 16.456 5.83502 -160.103 -81.987 -188.114
lowerback -7.83441 1.6704 -6.66297
upperback -1.1429 2.7239 0.918325
thorax 2.84649 1.27507 4.9726
lowerneck -5.33833 4.04789 -1.66387
upperneck 9.79038 5.24456 2.85177
head 4.02822 2.63446 1.50927
rclavicle 3.49861e-014 3.97569e-015
rhumerus -43.4007 -6.0303 -92.5962
rradius 98.8265
rwrist -3.4621
rhand -24.1596 -30.8133
rfingers 7.12502
rthumb 2.32324 -60.7804
lclavicle 3.49861e-014 3.97569e-015
lhumerus -38.4889 8.75387 84.3509
lradius 92.3946
lwrist 6.27992
lhand -57.5071 -40.2533
lfingers 7.12502
lthumb -29.7755 -12.6256
rfemur -5.21599 7.23168 7.54984
rtibia 4.01536
rfoot -13.1785 -15.8214
rtoes -36.4076
lfemur -8.36474 -12.4187 -9.85829
ltibia 8.30622
lfoot -15.7709 15.214
ltoes -69.2117
81
root 9.87209 16.4556 5.83677 -159.904 -81.9581 -188.367
lowerback -7.7809 1.71054 -6.74128
upperback -1.15094 2.78013 0.908947
thorax 2.79739 1.30451 5.0092
lowerneck -5.3905 4.03805 -1.63033
upperneck 9.87709 5.22601 2.85949
head 4.07077 2.62644 1.50922
rclavicle 3.26255e-014 -1.35174e-014
rhumerus -43.4095 -6.03316 -92.5457
rradius 98.8156
rwrist -3.55707
rhand -24.6448 -30.7283
rfingers 7.12502
rthumb 1.85462 -60.7
lclavicle 3.26255e-014 -1.35174e-014
lhumerus -38.4474 8.66887 84.3988
lradius 92.3343
lwrist 6.26418
lhand -57.5995 -40.4727
lfingers 7.12502
lthumb -29.8637 -12.8608
rfemur -5.12745 7.23521 7.50334
rtibia 3.99464
rfoot -13.139 -15.8269
rtoes -36.6035
lfemur -8.2811 -12.3715 -9.94687
ltibia 8.31568
lfoot -15.6826 15.2807
ltoes -69.3546
82
root 9.86674 16.4549 5.83828 -160.145 -81.9393 -188.162
lowerback -7.71825 1.72086 -6.70411
upperback -1.16957 2.78606 0.891642
thorax 2.74485 1.31037 4.96718
lowerneck -5.46575 4.07102 -1.63996
upperneck 9.99018 5.26037 2.94685
head 4.12278 2.64655 1.54741
rclavicle -1.50331e-015 1.39149e-015
rhumerus -43.4528 -5.96681 -92.6123
rradius 98.8493
rwrist -3.53023
rhand -25.1887 -30.4817
rfingers 7.12502
rthumb 1.32929 -60.4573
lclavicle -1.50331e-015 1.39149e-015
lhumerus -38.5586 8.74867 84.3704
lradius 92.2187
lwrist 6.19405
lhand -57.6705 -40.7271
lfingers 7.12502
lthumb -29.9315 -13.1275
rfemur -5.08501 7.08146 7.51853
rtibia 4.01521
rfoot -13.0324 -15.701
rtoes -37.0183
lfemur -8.22263 -12.4322 -9.94471
ltibia 8.35135
lfoot -15.9477 15.1372
ltoes -69.11
83
root 9.86265 16.4547 5.83973 -160.025 -81.9185 -188.301
lowerback -7.67421 1.68227 -6.70134
upperback -1.17538 2.73186 0.867364
thorax 2.72282 1.28445 4.93336
lowerneck -5.48547 4.14497 -1.66917
upperneck 9.96989 5.36042 2.97886
head 4.115 2.69674 1.56811
rclavicle -1.26725e-014 -7.15625e-015
rhumerus -43.4371 -5.82784 -92.7394
rradius 98.884
rwrist -3.42388
rhand -25.2067 -30.1382
rfingers 7.12502
rthumb 1.31198 -60.1139
lclavicle -1.26725e-014 -7.15625e-015
lhumerus -38.6373 8.9147 84.3036
lradius 92.2404
lwrist 6.14718
lhand -57.7862 -40.9363
lfingers 7.12502
lthumb -30.0419 -13.3566
rfemur -5.08907 6.87306 7.46749
rtibia 4.07391
rfoot -12.9805 -15.5223
rtoes -37.2169
lfemur -8.19903 -12.5577 -9.99422
ltibia 8.3969
lfoot -16.2446 15.0003
ltoes -68.8069
84
root 9.85957 16.4542 5.84292 -159.632 -81.9565 -188.652
lowerback -7.69067 1.65555 -6.74364
upperback -1.19084 2.70013 0.863959
thorax 2.71825 1.26866 4.95123
lowerneck -5.46828 4.15287 -1.72189
upperneck 9.90779 5.37786 2.97793
head 4.08743 2.70388 1.57552
rclavicle -1.67103e-014 1.2921e-014
rhumerus -43.3695 -5.82427 -92.7312
rradius 98.9156
rwrist -3.13186
rhand -24.5349 -30.2411
rfingers 7.12502
rthumb 1.96076 -60.2119
lclavicle -1.67103e-014 1.2921e-014
lhumerus -38.5933 8.93752 84.3122
lradius 92.287
lwrist 6.17792
lhand -57.8545 -41.0712
lfingers 7.12502
lthumb -30.1071 -13.5033
rfemur -5.12603 6.83182 7.39922
rtibia 4.09915
rfoot -13.0374 -15.5367
rtoes -37.0746
lfemur -8.29592 -12.6798 -10.0539
ltibia 8.47744
lfoot -16.148 15.201
ltoes -68.9587
85
root 9.8564 16.4531 5.84622 -159.67 -82.015 -188.519
lowerback -7.76965 1.66245 -6.76142
upperback -1.22382 2.71297 0.912283
thorax 2.72286 1.27512 5.01564
lowerneck -5.52603 4.12036 -1.83003
upperneck 9.99829 5.33795 3.03063
head 4.12819 2.68218 1.61482
rclavicle -1.85367e-014 -1.70955e-014
rhumerus -43.3312 -5.9321 -92.5772
rradius 98.9988
rwrist -2.73815
rhand -23.3956 -30.636
rfingers 7.12502
rthumb 3.06106 -60.5938
lclavicle -1.85367e-014 -1.70955e-014
lhumerus -38.5609 8.8843 84.3974
lradius 92.3776
lwrist 6.24498
lhand -57.7805 -41.045
lfingers 7.12502
lthumb -30.0365 -13.4643
rfemur -5.19822 6.93359 7.42817
rtibia 4.09464
rfoot -13.0293 -15.7145
rtoes -37.2011
lfemur -8.47172 -12.6819 -10.0016
ltibia 8.58916
lfoot -15.8919 15.4602
ltoes -69.3105
86
root 9.85162 16.4533 5.84909 -159.806 -81.9879 -188.335
lowerback -7.83747 1.66619 -6.75637
upperback -1.23397 2.7207 0.941356
thorax 2.74782 1.27805 5.04673
lowerneck -5.65137 4.13083 -1.92593
upperneck 10.1703 5.35217 3.09986
head 4.2102 2.68803 1.66492
rclavicle -3.14577e-014 -4.37326e-015
rhumerus -43.3191 -5.90837 -92.5402
rradius 99.0993
rwrist -2.68022
rhand -22.9039 -31.018
rfingers 7.12502
rthumb 3.5359 -60.9684
lclavicle -3.14577e-014 -4.37326e-015
lhumerus -38.5888 8.93025 84.4103
lradius 92.495
lwrist 6.29811
lhand -57.5968 -41.2493
lfingers 7.12502
lthumb -29.8612 -13.637
rfemur -5.24694 7.06725 7.43912
rtibia 4.09018
rfoot -12.9941 -15.8597
rtoes -37.3509
lfemur -8.52525 -12.7031 -9.98002
ltibia 8.63534
lfoot -15.8713 15.5729
ltoes -69.3948
87
root 9.84581 16.4546 5.85275 -159.914 -81.9172 -188.251
lowerback -7.84663 1.66933 -6.70601
upperback -1.22204 2.72238 0.925035
thorax 2.7684 1.2783 5.00208
lowerneck -5.69545 4.15422 -1.93854
upperneck 10.2303 5.38515 3.09134
head 4.23951 2.70311 1.66917
rclavicle 1.19768e-014 -1.07344e-014
rhumerus -43.3243 -5.78175 -92.6163
rradius 99.1784
rwrist -2.85367
rhand -23.1105 -31.225
rfingers 7.12502
rthumb 3.33635 -61.1786
lclavicle 1.19768e-014 -1.07344e-014
lhumerus -38.6621 8.97369 84.3305
lradius 92.4829
lwrist 6.4052
lhand -57.4189 -41.6675
lfingers 7.12502
lthumb -29.6914 -14.0247
rfemur -5.23421 7.14755 7.40876
rtibia 4.09112
rfoot -13.0628 -15.867
rtoes -37.0498
lfemur -8.44354 -12.7812 -10.021
ltibia 8.60621
lfoot -15.9202 15.6746
ltoes -69.3587
88
root 9.84243 16.4553 5.85577 -160.322 -81.9134 -187.859
lowerback -7.82398 1.66824 -6.61111
upperback -1.22757 2.71137 0.91941
thorax 2.75625 1.27432 4.94049
lowerneck -5.57797 4.17553 -2.02871
upperneck 10.1393 5.41162 3.19235
head 4.17726 2.71753 1.7134
rclavicle 9.21864e-015 6.36111e-015
rhumerus -43.3682 -5.67511 -92.6716
rradius 99.2514
rwrist -2.9269
rhand -23.0831 -31.21
rfingers 7.12502
rthumb 3.36283 -61.1632
lclavicle 9.21864e-015 6.36111e-015
lhumerus -38.7307 8.97415 84.221
lradius 92.4611
lwrist 6.56499
lhand -57.2713 -41.8473
lfingers 7.12502
lthumb -29.5505 -14.1796
rfemur -5.21724 7.14192 7.45799
rtibia 4.09307
rfoot -13.0726 -15.849
rtoes -36.9694
lfemur -8.41505 -12.7527 -9.97986
ltibia 8.61027
lfoot -15.8512 15.7398
ltoes -69.4312
89
root 9.84103 16.4556 5.85744 -160.46 -81.9291 -187.712
lowerback -7.8021 1.67574 -6.56912
upperback -1.24424 2.7163 0.893846
thorax 2.72926 1.27855 4.88898
lowerneck -5.41811 4.17229 -2.18451
upperneck 10.0168 5.39596 3.43646
head 4.09132 2.71519 1.81269
rclavicle -2.90723e-015 8.15017e-015
rhumerus -43.3901 -5.67171 -92.7135
rradius 99.2951
rwrist -2.91475
rhand -22.7182 -31.1311
rfingers 7.12502
rthumb 3.7152 -61.0785
lclavicle -2.90723e-015 8.15017e-015
lhumerus -38.7439 8.88661 84.1507
lradius 92.4777
lwrist 6.6785
lhand -57.2173 -42.0166
lfingers 7.12502
lthumb -29.4989 -14.3398
rfemur -5.21743 7.13002 7.48091
rtibia 4.07852
rfoot -12.9838 -15.8861
rtoes -37.2295
lfemur -8.4376 -12.7617 -9.94955
ltibia 8.63602
lfoot -16.1331 15.4874
ltoes -69.1122
90
root 9.83853 16.4559 5.85752 -160.012 -81.8968 -188.16
lowerback -7.79854 1.69649 -6.62763
upperback -1.24775 2.75024 0.827916
thorax 2.71965 1.2954 4.85559
lowerneck -5.33321 4.14345 -2.25844
upperneck 9.92166 5.34547 3.6211
head 4.03548 2.6961 1.87953
rclavicle 2.36057e-016 -1.80894e-014
rhumerus -43.3344 -5.74886 -92.7705
rradius 99.2912
rwrist -2.88843
rhand -22.3499 -31.0504
rfingers 7.12502
rthumb 4.07086 -60.9913
lclavicle 2.36057e-016 -1.80894e-014
lhumerus -38.7298 8.71232 84.1034
lradius 92.4681
lwrist 6.67549
lhand -57.2476 -42.0919
lfingers 7.12502
lthumb -29.5279 -14.4202
rfemur -5.2105 7.12184 7.38915
rtibia 4.06686
rfoot -13.006 -15.8567
rtoes -37.0702
lfemur -8.41475 -12.8357 -10.0229
ltibia 8.61646
lfoot -16.5135 15.2009
ltoes -68.6728
91
root 9.83529 16.4557 5.85678 -159.934 -81.8594 -188.228
lowerback -7.82001 1.70042 -6.69445
upperback -1.24901 2.76299 0.805892
thorax 2.72651 1.30085 4.87224
lowerneck -5.31022 4.15876 -2.27711
upperneck 9.86396 5.35861 3.72144
head 4.00684 2.70679 1.91453
rclavicle -1.75676e-014 1.27222e-014
rhumerus -43.2168 -5.75984 -92.8458
rradius 99.2471
rwrist -2.96088
rhand -22.2614 -30.9987
rfingers 7.12502
rthumb 4.15634 -60.9379
lclavicle -1.75676e-014 1.27222e-014
lhumerus -38.7262 8.65687 84.0477
lradius 92.4547
lwrist 6.55854
lhand -57.2546 -41.7509
lfingers 7.12502
lthumb -29.5346 -14.0803
rfemur -5.21512 7.10354 7.36664
rtibia 4.07235
rfoot -13.0994 -15.7553
rtoes -36.8034
lfemur -8.39835 -12.6718 -10.0226
ltibia 8.59896
lfoot -16.5755 14.9915
ltoes -68.5994
92
root 9.83179 16.4551 5.85695 -160.324 -81.8259 -187.846
lowerback -7.82853 1.71031 -6.74126
upperback -1.24243 2.77996 0.841914
thorax 2.73177 1.30854 4.93843
lowerneck -5.37875 4.18847 -2.27178
upperneck 9.95142 5.39485 3.74133
head 4.04999 2.72563 1.9271
rclavicle 3.42531e-014 1.5704e-014
rhumerus -43.1521 -5.69324 -92.8592
rradius 99.2538
rwrist -3.14781
rhand -22.3251 -30.9216
rfingers 7.12502
rthumb 4.09487 -60.862
lclavicle 3.42531e-014 1.5704e-014
lhumerus -38.7147 8.64347 84.0399
lradius 92.4337
lwrist 6.455
lhand -57.3036 -41.5
lfingers 7.12502
lthumb -29.5813 -13.8377
rfemur -5.18627 7.09127 7.43309
rtibia 4.05567
rfoot -13.0736 -15.6947
rtoes -37.0352
lfemur -8.34303 -12.4142 -9.97045
ltibia 8.5692
lfoot -16.5202 14.8111
ltoes -68.6226
93
root 9.82806 16.4544 5.85876 -160.125 -81.8035 -188.092
lowerback -7.79201 1.76373 -6.7798
upperback -1.22366 2.85404 0.799092
thorax 2.72144 1.34527 4.92053
lowerneck -5.52828 4.13327 -2.19946
upperneck 10.1203 5.31044 3.75097
head 4.14495 2.68685 1.92449
rclavicle 2.40654e-014 1.90833e-014
rhumerus -43.1798 -5.74312 -92.8288
rradius 99.3689
rwrist -3.32457
rhand -22.1827 -30.8478
rfingers 7.12502
rthumb 4.23235 -60.7855
lclavicle 2.40654e-014 1.90833e-014
lhumerus -38.6438 8.4721 84.0519
lradius 92.4026
lwrist 6.35443
lhand -57.4065 -41.6523
lfingers 7.12502
lthumb -29.6795 -14.0075
rfemur -5.10309 6.99544 7.38261
rtibia 4.01342
rfoot -12.9694 -15.6317
rtoes -37.5137
lfemur -8.24607 -12.391 -10.0592
ltibia 8.52419
lfoot -16.3875 14.9005
ltoes -68.7523
